# xmcd
#
# Track frame offsets: 
#        150
#        14702
#        27726
#        45901
#        70117
#        84982
#        96797
#        115710
#        142788
#        156076
#        169886
#        194841
#        202326
#        226399
#        245044
#        259301
#        286426
#        311116
#        329754
#
# Disc length: 4625 seconds
#
# Revision: 0
# Processed by: cddbd v1.5.2PL0 Copyright (c) Steve Scherf et al.
# Submitted via: ExactAudioCopy v0.99pb3
#
DISCID=21120f13
DTITLE=Troyce Key, J.J. Malone and The Rhythm Rockers - Younger Than Yes
DTITLE=terday...plus
DYEAR=2009
DGENRE=Blues
TTITLE0=Flip, Flop and Fly
TTITLE1=Annie Maybe
TTITLE2=It Should Have Been Me
TTITLE3=Louisiana Blues
TTITLE4=Crazy Little Chicken
TTITLE5=Saturday Night Shakedown
TTITLE6=Daddy Rollin' Stone
TTITLE7=Sail On
TTITLE8=Gimme Mine Out Now
TTITLE9=Jaywalk
TTITLE10=Outskirts Of Town
TTITLE11=Tutti Frutti
TTITLE12=New Car
TTITLE13=Katy May
TTITLE14=You're A Good Lookin' Woman
TTITLE15=Old Fashioned Blues
TTITLE16=Crawdad Hole
TTITLE17=Sweet Taters And Possum Meat
TTITLE18=Monday Woman
EXTD=
EXTT0=
EXTT1=
EXTT2=
EXTT3=
EXTT4=
EXTT5=
EXTT6=
EXTT7=
EXTT8=
EXTT9=
EXTT10=
EXTT11=
EXTT12=
EXTT13=
EXTT14=
EXTT15=
EXTT16=
EXTT17=
EXTT18=
PLAYORDER=
